<svg width="267" height="73" viewBox="0 0 267 73" fill="none" xmlns="http://www.w3.org/2000/svg">
<path d="M13.2 59V26.12L1.2 26.72V16.52H36.3V26.72L24 26.12V49.4L24.66 55.4L24 59H13.2ZM41.16 59V39.14L39.9 34.34L41.1 30.68H51.96V59H41.16ZM46.8 27.8L38.52 19.94V16.28H45.9L49.86 27.8H46.8ZM56.1891 34.34L58.0491 30.68H66.9891V33.26L67.5291 33.62C67.9691 33.22 68.5691 32.76 69.3291 32.24C70.1291 31.68 71.0891 31.18 72.2091 30.74C73.3291 30.3 74.5891 30.08 75.9891 30.08C80.1491 30.08 83.1291 31.46 84.9291 34.22C85.6491 33.22 86.7291 32.28 88.1691 31.4C89.6491 30.48 91.6891 30.02 94.2891 30.02C97.8891 30.02 100.589 31.04 102.389 33.08C104.189 35.12 105.089 37.98 105.089 41.66V49.34L106.349 55.34L105.089 59H94.2891V43.22C94.2891 41.7 93.9491 40.54 93.2691 39.74C92.6291 38.9 91.6091 38.48 90.2091 38.48C89.2891 38.48 88.4891 38.82 87.8091 39.5C87.1291 40.18 86.7891 41.04 86.7891 42.08V59H75.9891V43.28C75.9891 41.76 75.6491 40.6 74.9691 39.8C74.3291 38.96 73.3091 38.54 71.9091 38.54L68.1891 39.68V59H57.3891V40.94L56.1891 34.34ZM126.824 59V26.12L125.564 20.12L126.824 16.52H137.624V26.12L136.964 41.66H139.364L143.984 30.68H156.224V34.28L149.564 44L154.004 49.4L159.644 55.46V59H148.004L141.224 49.1L137.624 49.7V59H126.824ZM169.254 28.94L161.634 21.26L169.254 13.64L176.874 21.26L169.254 28.94ZM163.854 59V39.14L162.594 34.34L163.794 30.68H174.654V59H163.854ZM195.173 59.6C192.093 59.6 189.353 59.14 186.953 58.22C184.553 57.3 182.673 55.76 181.313 53.6C179.953 51.44 179.273 48.52 179.273 44.84C179.273 42.2 179.713 39.94 180.593 38.06C181.513 36.18 182.733 34.66 184.253 33.5C185.773 32.3 187.473 31.44 189.353 30.92C191.233 30.36 193.173 30.08 195.173 30.08C198.613 30.08 201.253 30.42 203.093 31.1C204.973 31.78 206.213 32.32 206.813 32.72L209.813 42.26L208.613 45.98H190.013C190.293 47.46 191.033 48.7 192.233 49.7C193.433 50.7 195.413 51.2 198.173 51.2C200.333 51.2 202.193 50.96 203.753 50.48C205.313 50 206.533 49.58 207.413 49.22V57.26C206.213 57.9 204.473 58.46 202.193 58.94C199.953 59.38 197.613 59.6 195.173 59.6ZM190.073 42.14L198.353 40.94L197.813 38.36C197.533 38.2 197.113 38.08 196.553 38C196.033 37.92 195.573 37.88 195.173 37.88C194.053 37.88 193.113 38.12 192.353 38.6C191.633 39.08 191.073 39.66 190.673 40.34C190.313 40.98 190.113 41.58 190.073 42.14ZM185.153 26.6L191.693 18.2H197.753L204.233 26.6H199.373L194.753 23.12L189.953 26.6H185.153ZM191.213 15.5L195.173 3.98H202.493V7.64L194.213 15.5H191.213ZM213.63 34.34L215.49 30.68H224.43V33.26L224.97 33.62C225.41 33.22 226.01 32.76 226.77 32.24C227.57 31.68 228.53 31.18 229.65 30.74C230.77 30.3 232.03 30.08 233.43 30.08C237.59 30.08 240.57 31.46 242.37 34.22C243.09 33.22 244.17 32.28 245.61 31.4C247.09 30.48 249.13 30.02 251.73 30.02C255.33 30.02 258.03 31.04 259.83 33.08C261.63 35.12 262.53 37.98 262.53 41.66V49.34L263.79 55.34L262.53 59H251.73V43.22C251.73 41.7 251.39 40.54 250.71 39.74C250.07 38.9 249.05 38.48 247.65 38.48C246.73 38.48 245.93 38.82 245.25 39.5C244.57 40.18 244.23 41.04 244.23 42.08V59H233.43V43.28C233.43 41.76 233.09 40.6 232.41 39.8C231.77 38.96 230.75 38.54 229.35 38.54L225.63 39.68V59H214.83V40.94L213.63 34.34Z" fill="black"/>
</svg>
